<?xml version="1.0" encoding="UTF-8"?>
<svg width="254px" height="260px" viewBox="0 0 254 260" version="1.1" xmlns="http://www.w3.org/2000/svg" xmlns:xlink="http://www.w3.org/1999/xlink">
    <title>Group 2</title>
    <g id="Page-1" stroke="none" stroke-width="1" fill="none" fill-rule="evenodd">
        <g id="Artboard" transform="translate(-2003.000000, -1331.000000)">
            <g id="Group-2" transform="translate(2003.000000, 1331.000000)">
                <path d="M127,0 C197.140163,0 254,56.8598368 254,127 C254,172.41414 232.34961,207.484004 194.317762,234.71083 C194.317762,234.71083 171.878508,204.527853 127,144.161898 C83.0385414,205.094115 61.0578121,235.560223 61.0578121,235.560223 C24.4482744,213.275023 0,172.992612 0,127 C0,56.8598368 56.8598368,0 127,0 Z M127,20.4163698 C68.3414881,20.4163698 18.8611729,70.5521193 18.8611729,129.210631 C18.8611729,167.674445 30.4809637,191.725674 57.3621121,213.398101 C57.3621121,213.398101 80.5747414,181.665084 127,118.19905 C174.506194,181.665084 198.259291,213.398101 198.259291,213.398101 C224.309486,191.218091 235.475566,167.190666 235.475566,129.210631 C235.475566,70.5521193 185.658512,20.4163698 127,20.4163698 Z" id="Combined-Shape" fill="#77060F"></path>
                <polygon id="Path-6" fill="#77060F" points="48.9865547 181.251683 127.16837 70.8650161 207.607557 181.251683 195.361535 194.97549 128.297056 99.2230222 60.6585468 194.97549"></polygon>
                <path d="M127.297056,173.801366 L75.5199649,245.78486 C90.8641642,254.9594 108.123195,259.54667 127.297056,259.54667 C146.470917,259.54667 163.587975,254.9594 178.64823,245.78486 L127.297056,173.801366 Z" id="Path-7" fill="#E3BB32"></path>
            </g>
        </g>
    </g>
</svg>