<?xml version="1.0" encoding="UTF-8"?>
<svg width="99px" height="50px" viewBox="0 0 99 50" version="1.1" xmlns="http://www.w3.org/2000/svg" xmlns:xlink="http://www.w3.org/1999/xlink">
    <title>noun-triangle-748521</title>
    <g id="Custom-widget-images" stroke="none" stroke-width="1" fill="none" fill-rule="evenodd">
        <g id="Artboard" transform="translate(-18.000000, -99.000000)" fill="#000000" fill-rule="nonzero">
            <g id="noun-triangle-748521" transform="translate(18.000000, 99.000000)">
                <path d="M95.9395312,26.7389133 L57.9880185,48.302263 C57.0276432,48.8479305 55.8067542,48.5117435 55.2610867,47.5513682 C55.0899658,47.2501953 55,46.9097418 55,46.5633497 L55,3.43665031 C55,2.33208081 55.8954305,1.43665031 57,1.43665031 C57.3463921,1.43665031 57.6868456,1.52661612 57.9880185,1.697737 L95.9395312,23.2610867 C96.8999065,23.8067542 97.2360936,25.0276432 96.690426,25.9880185 C96.5123642,26.3014074 96.2529201,26.5608515 95.9395312,26.7389133 Z" id="Path"></path>
                <path d="M40.9395312,26.7389133 L2.98801848,48.302263 C2.02764317,48.8479305 0.806754229,48.5117435 0.261086692,47.5513682 C0.0899658157,47.2501953 -2.84415907e-15,46.9097418 0,46.5633497 L0,3.43665031 C1.64108609e-15,2.33208081 0.8954305,1.43665031 2,1.43665031 C2.34639206,1.43665031 2.6868456,1.52661612 2.98801848,1.697737 L40.9395312,23.2610867 C41.8999065,23.8067542 42.2360936,25.0276432 41.690426,25.9880185 C41.5123642,26.3014074 41.2529201,26.5608515 40.9395312,26.7389133 Z" id="Path" transform="translate(22.000010, 25.000005) scale(-1, 1) translate(-22.000010, -25.000005) "></path>
            </g>
        </g>
    </g>
</svg>