<?xml version="1.0" encoding="UTF-8"?>
<svg width="21px" height="10px" viewBox="0 0 21 10" version="1.1" xmlns="http://www.w3.org/2000/svg" xmlns:xlink="http://www.w3.org/1999/xlink">
    <title>Group</title>
    <g id="Custom-widget-images" stroke="none" stroke-width="1" fill="none" fill-rule="evenodd">
        <g id="Artboard" transform="translate(-14.000000, -98.000000)" fill="#000000" fill-rule="nonzero">
            <g id="Group" transform="translate(14.000000, 98.000000)">
                <g id="noun-triangle-748521">
                    <path d="M8.03666344,5.8903436 L1.45528922,9.2558182 C0.963566034,9.50726749 0.361105698,9.31248702 0.109656402,8.82076383 C0.0375826272,8.67981952 -2.02658045e-16,8.52377788 0,8.3654746 L0,1.6345254 C-1.78657678e-16,1.08224065 0.44771525,0.6345254 1,0.6345254 C1.15830327,0.6345254 1.31434492,0.672108027 1.45528922,0.744181802 L8.03666344,4.1096564 C8.52838663,4.3611057 8.72316711,4.96356603 8.47171781,5.45528922 C8.37602381,5.64242422 8.22379843,5.79464959 8.03666344,5.8903436 Z" id="Path" transform="translate(4.888890, 5.000000) scale(-1, 1) translate(-4.888890, -5.000000) "></path>
                </g>
                <g id="noun-triangle-748521" transform="translate(15.888890, 5.000000) scale(-1, 1) translate(-15.888890, -5.000000) translate(11.000000, 0.000000)">
                    <path d="M8.03666344,5.8903436 L1.45528922,9.2558182 C0.963566034,9.50726749 0.361105698,9.31248702 0.109656402,8.82076383 C0.0375826272,8.67981952 -2.02658045e-16,8.52377788 0,8.3654746 L0,1.6345254 C-1.78657678e-16,1.08224065 0.44771525,0.6345254 1,0.6345254 C1.15830327,0.6345254 1.31434492,0.672108027 1.45528922,0.744181802 L8.03666344,4.1096564 C8.52838663,4.3611057 8.72316711,4.96356603 8.47171781,5.45528922 C8.37602381,5.64242422 8.22379843,5.79464959 8.03666344,5.8903436 Z" id="Path" transform="translate(4.888890, 5.000000) scale(-1, 1) translate(-4.888890, -5.000000) "></path>
                </g>
            </g>
        </g>
    </g>
</svg>