<?xml version="1.0" encoding="UTF-8"?>
<svg width="23px" height="10px" viewBox="0 0 23 10" version="1.1" xmlns="http://www.w3.org/2000/svg" xmlns:xlink="http://www.w3.org/1999/xlink">
    <title>Group 2</title>
    <g id="Custom-widget-images" stroke="none" stroke-width="1" fill="none" fill-rule="evenodd">
        <g id="Artboard" transform="translate(-6.000000, -98.000000)" fill="#000000" fill-rule="nonzero">
            <g id="Group" transform="translate(6.000000, 98.000000)">
                <g id="noun-triangle-748521">
                    <path d="M8.03666344,5.8903436 L1.45528922,9.2558182 C0.963566034,9.50726749 0.361105698,9.31248702 0.109656402,8.82076383 C0.0375826272,8.67981952 -2.02658045e-16,8.52377788 0,8.3654746 L0,1.6345254 C-1.78657678e-16,1.08224065 0.44771525,0.6345254 1,0.6345254 C1.15830327,0.6345254 1.31434492,0.672108027 1.45528922,0.744181802 L8.03666344,4.1096564 C8.52838663,4.3611057 8.72316711,4.96356603 8.47171781,5.45528922 C8.37602381,5.64242422 8.22379843,5.79464959 8.03666344,5.8903436 Z" id="Path" transform="translate(4.888890, 5.000000) scale(-1, 1) translate(-4.888890, -5.000000) "></path>
                </g>
                <g id="noun-triangle-748521" transform="translate(18.500000, 5.000000) scale(-1, 1) translate(-18.500000, -5.000000) translate(14.000000, 0.000000)">
                    <path d="M7.4265169,5.87415728 L1.48564293,9.17464282 C1.0028592,9.442856 0.394055909,9.2689122 0.125842724,8.78612847 C0.0433105008,8.63757047 -1.20043316e-15,8.47042979 0,8.30048554 L0,1.69951446 C-4.00702282e-16,1.14722971 0.44771525,0.69951446 1,0.69951446 C1.16994425,0.69951446 1.33708493,0.742824961 1.48564293,0.825357184 L7.4265169,4.12584272 C7.90930064,4.39405591 8.08324443,5.0028592 7.81503125,5.48564293 C7.72434232,5.648883 7.58975697,5.78346835 7.4265169,5.87415728 Z" id="Path" transform="translate(4.500000, 5.000000) scale(-1, 1) translate(-4.500000, -5.000000) "></path>
                </g>
            </g>
        </g>
    </g>
</svg>